<?xml version="1.0" encoding="utf-8"?>
<!-- Generator: Adobe Illustrator 22.0.0, SVG Export Plug-In . SVG Version: 6.00 Build 0)  -->
<svg version="1.1" id="Calque_1" xmlns="http://www.w3.org/2000/svg" xmlns:xlink="http://www.w3.org/1999/xlink" x="0px" y="0px"
	 viewBox="0 0 150 150" style="enable-background:new 0 0 150 150;" xml:space="preserve">
<style type="text/css">
	.st0{fill:#FCDE75;}
	.st1{fill:#8B492A;}
	.st2{fill:#FCDE72;}
	.st3{fill:#FCDD72;}
</style>
<path class="st0" d="M146.9,75.2c0,38.9-32.3,71.1-71.2,71.1c-38.9,0-71.1-32.3-71.1-71.2C4.6,36.2,36.8,4,75.8,4
	C114.7,4,147,36.3,146.9,75.2z M75.4,140.3c35.8,0.1,65.4-29.2,65.5-64.8c0.1-35.8-29.2-65.4-64.8-65.5
	C40.4,9.9,10.7,39.2,10.6,74.8C10.5,110.6,39.8,140.2,75.4,140.3z"/>
<path class="st1" d="M75.4,140.3c-35.6-0.1-64.9-29.8-64.8-65.5C10.7,39.2,40.4,9.9,76.1,10c35.6,0.1,64.9,29.8,64.8,65.5
	C140.8,111.2,111.1,140.5,75.4,140.3z M83.2,23.6c-3.3-0.4-5,1.4-6.3,4c-13.5,26.1-25.4,53-36.4,80.2c-1.2,2.9-2.1,5.8,1.6,7.8
	c3.9,2.1,4.9-1.2,6.4-3.5c15.3-24.7,30.5-49.4,45.9-74.1c4.5-7.3,3.5-10.3-4.7-12.9C87.5,24.4,85.3,24.1,83.2,23.6z M117,46.1
	c-0.1-2.6-1-4-4.6-6.7c-8.9-6.9-9-6.9-14.8,2.5C82.4,66.5,67.2,91.1,52,115.6c-1.3,2.1-2.5,4.1,0,6.2c2.6,2.1,4.9,1.6,7-0.7
	c3.3-3.8,6.5-7.6,9.8-11.4c15.9-18.3,31.2-37,45.3-56.8C115.6,50.8,117.2,48.8,117,46.1z M28.4,98.1c0.1,1.3,0,2.2,0.2,3
	c0.6,2.5,0.5,5.7,3.9,6.3c3.9,0.7,4-2.9,4.9-5.2c9.8-24.9,21.1-49.1,33.1-73c0.9-1.8,3-3.7,1-5.9c-2-2.2-4.6-1.7-7-1
	c-7.6,2.2-12.3,7.7-15.6,14.6C42.2,51.1,37,65.7,32.8,80.7C31.1,86.6,29.1,92.4,28.4,98.1z M126.2,64c0-0.3,0-1.3-0.2-2.3
	c-0.5-2.8-0.8-6.2-3.8-7.1c-3.2-1-4.3,2.5-5.9,4.5c-6.9,8.8-13.6,17.8-20.5,26.6c-9.8,12.3-19.8,24.4-30.4,36
	c-1.3,1.4-3.3,2.8-1.7,5.2c1.4,2,3.5,1.9,5.4,1.5c2.6-0.5,5.2-1.4,7.3-3.2c15.8-13.7,30.9-28.2,43.8-44.8
	C123.7,75.8,126.3,70.7,126.2,64z"/>
<path class="st2" d="M83.2,23.6c2.1,0.5,4.3,0.8,6.3,1.4c8.2,2.6,9.2,5.6,4.7,12.9c-15.3,24.7-30.6,49.4-45.9,74.1
	c-1.4,2.3-2.4,5.6-6.4,3.5c-3.6-2-2.8-4.8-1.6-7.8c11-27.2,23-54.1,36.4-80.2C78.2,25,79.9,23.2,83.2,23.6z"/>
<path class="st3" d="M117,46.1c0.2,2.7-1.5,4.7-2.9,6.7c-14,19.8-29.4,38.5-45.3,56.8c-3.3,3.8-6.5,7.6-9.8,11.4
	c-2.1,2.4-4.4,2.8-7,0.7c-2.5-2-1.3-4.1,0-6.2c15.2-24.6,30.4-49.1,45.6-73.7c5.8-9.4,5.9-9.4,14.8-2.5C116,42.1,117,43.6,117,46.1z
	"/>
<path class="st3" d="M28.4,98.1c0.7-5.7,2.7-11.6,4.4-17.5C37,65.7,42.2,51.1,48.9,37c3.3-6.9,7.9-12.4,15.6-14.6
	c2.4-0.7,5.1-1.2,7,1c2,2.2-0.1,4.1-1,5.9c-12,23.9-23.2,48.1-33.1,73c-0.9,2.3-1,5.8-4.9,5.2c-3.4-0.6-3.3-3.8-3.9-6.3
	C28.4,100.3,28.5,99.5,28.4,98.1z"/>
<path class="st3" d="M126.2,64c0.1,6.7-2.5,11.8-6,16.3c-12.9,16.6-28,31-43.8,44.8c-2.1,1.8-4.6,2.7-7.3,3.2
	c-2,0.4-4.1,0.6-5.4-1.5c-1.6-2.4,0.4-3.8,1.7-5.2c10.7-11.6,20.7-23.7,30.4-36c7-8.8,13.6-17.8,20.5-26.6c1.6-2,2.7-5.5,5.9-4.5
	c3,0.9,3.3,4.3,3.8,7.1C126.2,62.7,126.2,63.7,126.2,64z"/>
</svg>
