<?xml version="1.0" encoding="utf-8"?>
<!-- Generator: Adobe Illustrator 22.0.0, SVG Export Plug-In . SVG Version: 6.00 Build 0)  -->
<svg version="1.1" id="Calque_1" xmlns="http://www.w3.org/2000/svg" xmlns:xlink="http://www.w3.org/1999/xlink" x="0px" y="0px"
	 viewBox="0 0 150 150" style="enable-background:new 0 0 150 150;" xml:space="preserve">
<style type="text/css">
	.st0{fill:#D63837;stroke:#FFFFFF;stroke-width:6;stroke-miterlimit:10;}
	.st1{fill:#FFFFFF;stroke:#000000;stroke-width:0.25;stroke-miterlimit:10;}
	.st2{fill:#064270;stroke:#000000;stroke-width:0.25;stroke-miterlimit:10;}
	.st3{fill:#D1383A;stroke:#000000;stroke-width:0.25;stroke-miterlimit:10;}
	.st4{fill:#D13839;stroke:#000000;stroke-width:0.25;stroke-miterlimit:10;}
	.st5{fill:#D63837;stroke:#000000;stroke-width:0.25;stroke-miterlimit:10;}
	.st6{fill:#074371;stroke:#000000;stroke-width:0.25;stroke-miterlimit:10;}
	.st7{fill:#074372;stroke:#000000;stroke-width:0.25;stroke-miterlimit:10;}
	.st8{fill:#D43A3A;stroke:#000000;stroke-width:0.25;stroke-miterlimit:10;}
	.st9{fill:#D73E3E;stroke:#000000;stroke-width:0.25;stroke-miterlimit:10;}
	.st10{fill:#084371;stroke:#000000;stroke-width:0.25;stroke-miterlimit:10;}
</style>
<circle class="st0" cx="74.6" cy="76.3" r="68.4"/>
<g>
	<path class="st1" d="M57.5,114c-0.9,0-3.9-0.1-4.2-0.1c-8.2-0.3-13.2-0.8-21.2-2c-2.1-0.3-4.3-0.6-6.3-1.4
		c-0.4-0.2-0.8-0.3-1.1-0.6c-0.7-0.5-0.7-1,0-1.4c1.5-0.9,3.2-1.2,4.8-1.5c4.3-0.8,8.6-1.2,12.9-1.6c0-0.1,0.1-0.2,0-0.2
		c-6.7-5.3-10.7-12.4-13.5-20.3c-2.3-6.6-3.4-13.4-4.1-20.3C24.1,56.8,24.1,49,24,41.2c0-0.9,0.2-1.2,1.2-1.2c30.2,0,60.5,0,90.7,0
		c1,0,1.2,0.3,1.2,1.2c-0.1,2.6,0,5.3-0.1,7.9c0,0.8,0.2,1.1,1,1.3c4.8,0.9,9.4,2.5,13.4,5.6c9.3,7.2,9,21.7-0.5,28.6
		c-4.4,3.2-9.5,4.8-14.9,5.6c-1.7,0.2-3.4,0.5-5.2,0.5c-0.8,0-1.1,0.3-1.5,1c-2.2,4.5-5.1,8.6-8.8,11.9c-0.6,0.6-1.3,1.1-2.2,1.9
		c2.5,0.2,4.7,0.4,7,0.7c3.3,0.4,6.6,0.7,9.7,1.8c0.7,0.2,1.7,0.4,1.8,1.2c0.1,1-1,1.1-1.8,1.4c-3.2,1.1-6.5,1.5-9.9,1.8
		c-7.1,0.8-14.3,1.2-21.5,1.4c-0.2,0-0.2,0-0.6,0.1c-0.6,0-1,0-1.6,0c-1-0.1-1.1,0.1-1.4,0c-0.8,0-1.4,0.2-2.3,0.2
		c-4.9,0-9.9,0-14.8,0c-0.8,0.2-0.8,0.2-1.6,0.2c-0.3,0-1.1-0.2-1.7-0.2C59,114,58.3,114,57.5,114z M113.2,81.6
		c2.3-0.2,4.4-0.7,6.5-1.4c3.4-1.2,5.7-3.3,6.3-6.9c0.3-2.1,0.4-4.2,0-6.3c-0.5-2.2-1.5-4-3.5-5.3c-1.3-0.9-2.7-1.5-4.2-1.9
		c-1.7-0.5-1.7-0.5-1.8,1.2c-0.2,3.4-0.6,6.8-1.1,10.1C114.9,74.6,114.1,78,113.2,81.6z"/>
	<path class="st2" d="M59.5,90.4c-0.2-1.5-0.3-2.9,1.5-3.6c1.3-0.4,3.1,0.3,3.8,1.6c0.8,1.3,0.4,3.2-1,4.3c-2.2,1.7-4.7,1.7-7.2,1.1
		c-6.5-1.5-10-6-11.6-12.2c-3.7-14.7,6.1-29.2,21.2-31.4c11.9-1.7,22.8,3.3,28,13.2c3.8,7.4,4.5,15.1,0.6,22.7
		c-2.7,5.5-7.4,8-13.5,7.9c-1.2,0-2.4-0.4-3.4-1.1c-1.4-1-1.9-2.7-1.3-4.2c0.6-1.6,2.5-2.5,4.1-1.9c1.1,0.4,2.1,1.9,1.1,3.6
		c-0.6,0.4-0.7,0.6,0.2,0.7c2.7,0.1,5-0.6,6.9-2.5c2.2-2.2,3.4-5,4-8c0.4-1.9,0.8-3.7,2.2-5.1c0.6-0.7,0.3-1.3-0.5-1.7
		c-0.4-0.2-0.8-0.2-1.3-0.4c0.5-0.3,1-0.6,1.3-0.9c0.6-0.7,1.4-1.9,0.9-2.6c-0.5-0.7-1.1-2.1-2.7-1.4c-0.8,0.4-0.8-0.5-1-0.9
		c-3.2-7.8-9.2-12.3-17.1-14.6c-0.4-0.1-0.8-0.4-1.2,0c0.2,0.5,0.3,1,0.4,1.4c-0.5,1.7-1.6,2.6-3.2,2.5c-1.5-0.1-2.7-0.8-3-2.5
		c0-0.5,0.5-1,0.3-1.6c-0.2,0-0.3,0-0.5,0c-8.2,2.2-14.4,6.7-17.7,14.8c-0.2,0.4-0.1,1.1-1,0.9c-2.1-0.3-3.1,1.2-2.3,3.1
		c0.3,0.8,1.1,1.1,1.5,1.7c-2,0.8-2,0.9-0.9,2.7c0.6,1,1.3,1.7,1.5,3c0.2,3,1.4,5.7,3.2,8.2c1.9,2.6,4.6,3.8,7.8,3.7
		c0.3,0,0.7,0.2,0.7-0.3C60.1,90.7,59.7,90.6,59.5,90.4z"/>
	<path class="st3" d="M59.5,90.4c0.2,0.2,0.6,0.3,0.6,0.5c0,0.5-0.5,0.3-0.7,0.3c-3.2,0.1-5.9-1.1-7.8-3.7c-1.8-2.4-2.9-5.2-3.2-8.2
		c-0.1-1.4-0.9-2.1-1.5-3c-1.1-1.9-1.1-1.9,0.9-2.7c-0.4-0.6-1.2-0.9-1.5-1.7c-0.8-1.9,0.3-3.4,2.3-3.1c0.9,0.1,0.9-0.5,1-0.9
		C53,59.7,59.2,55.2,67.4,53c0.2,0,0.3,0,0.5,0c0.2,0.6-0.2,1.1-0.3,1.6C61.1,56.4,56,60,52.5,65.8c0.5,0.7,1.3-0.5,1.6,0.3
		c0.3,0.8,0.7,1.6,1.1,2.5c0.2,0.4-0.3,0.4-0.6,0.4c-1.8,0-2.7,1.1-3.4,2.6c-2.3,5.1-0.8,13,3.2,16.8C55.7,89.8,57.4,90.8,59.5,90.4
		z"/>
	<path class="st4" d="M73.8,54.6c-0.1-0.5-0.3-0.9-0.4-1.4c0.4-0.4,0.8-0.2,1.2,0c7.9,2.3,13.9,6.8,17.1,14.6c0.2,0.5,0.2,1.3,1,0.9
		c1.5-0.7,2.2,0.7,2.7,1.4c0.5,0.6-0.2,1.8-0.9,2.6c-0.3,0.3-0.8,0.6-1.3,0.9c0.5,0.1,0.9,0.2,1.3,0.4c0.8,0.3,1.1,1,0.5,1.7
		c-1.4,1.5-1.9,3.2-2.2,5.1c-0.6,3-1.8,5.8-4,8c-1.9,1.9-4.3,2.6-6.9,2.5c-0.8,0-0.7-0.3-0.2-0.7c2.5,0.3,4.3-0.9,5.9-2.5
		c3.6-3.8,4.9-11.6,2.7-16.4c-0.7-1.5-1.6-2.6-3.5-2.6c-0.3,0-0.7,0-0.7-0.5c0.1-0.7,1-1.1,1-2c0-1.3,1-0.4,1.6-0.6
		C87.4,61.6,80.1,56.1,73.8,54.6z"/>
	<path class="st5" d="M74,71c3,0.5,5.3,2,7.5,4c0.5,0.5,0.7,1,0.2,1.3c-1.1,0.7-1.7,2-2.6,2.9c-1.5,1.5-3.6,2-5.6,2.6
		c-0.5-0.7-0.6-1.6-0.5-2.5c0.5-0.2,1-0.3,1.4-0.6c1.1-0.6,1.7-1.6,1.3-2.9c-0.4-1.3-1.3-2-2.7-1.7c-0.3,0-0.7,0-0.9,0.2
		c-1,1-1.9,0.6-2.8,0c-0.2-0.1-0.4-0.1-0.6-0.1c-0.6-0.5-1.4-0.5-2-0.5c-3-0.2-4.7-2.4-6.9-4c-0.3-0.2-0.3-0.8,0-1
		c1.7-1.1,2.4-3.3,4.4-4.1c0.7,0.5,1.1,1.1,1.3,2c-1,0.9-1.2,2-0.6,3.2c0.6,1.1,1.7,1.6,3,1.2c1,0,1.8-0.3,2.5-1
		c0.3-0.2,0.7-0.2,1.1-0.1C72.1,70.8,73,71,74,71z"/>
	<path class="st6" d="M73,79.5c-0.1,0.9,0,1.7,0.5,2.5c0.2,1,0.7,1.9,1.5,2.5c0.5,0.4,0.3,0.7,0.1,1.1c-0.4,0.6-0.6-0.1-0.8-0.2
		c-0.5-0.2-1-0.6-1.5-0.7c-0.7-0.1-1.2-0.1-1.4-1c-0.2-0.8-0.9-1-1.2-0.1c-0.3,0.8-0.6,1.1-1.5,1.1c-0.5,0-1,0.4-1.5,0.7
		c-0.3,0.2-0.6,0.6-0.9,0.1c-0.2-0.3-0.4-0.7,0.1-1c1.1-0.7,1.5-1.8,1.7-3.1c0.2-0.6,0.4-1.1,0.3-1.8c0.3-1.8,0.1-3.5,0.1-5.3
		c0.2,0,0.5,0,0.6,0.1c0.9,0.6,1.8,1,2.8,0c0.2-0.2,0.6-0.1,0.9-0.2C72.8,76,72.7,77.8,73,79.5z"/>
	<path class="st7" d="M65.4,66.7c-0.2-0.8-0.6-1.5-1.3-2c-0.8-1.2-1.9-2-3.4-2.4c0.1-0.2,0.1-0.4,0.2-0.5c0.9-1,1.9-1,3.2-0.9
		c0.9,0.1,1.5-1.8,2.9-1.5c0.8,0.1,1,0.3,0.6,1.1c-0.4,0.9-0.5,1.9,0,2.8c0,0.8,0.3,1.5,0.7,2.2c0.5,1.6,1.1,3.2,1.9,4.7
		c-0.7,0.7-1.5,1-2.5,1C67,69.6,66.3,68.1,65.4,66.7z"/>
	<path class="st8" d="M68.4,65.5c-0.4-0.7-0.7-1.4-0.7-2.2c0.1,0,0.1,0,0.2-0.1c2.2-2.1,4.1-1,6,0.6c1,0.9,2.2,1.2,3.5,1.2
		c0.9,0.2,2.2-0.4,2.6,0.4c0.3,0.7-1.2,1-1.5,1.8c-0.2,0.4-0.4,0.7-0.6,1.1c-0.6-0.5-1.1-1-1.7-1.5c-0.7-0.9-1.7-1.3-2.8-1.3
		C71.7,65,70,65.1,68.4,65.5z"/>
	<path class="st7" d="M77.3,65.1c-1.3,0-2.5-0.4-3.5-1.2c0.4-1.2,0.7-2.3,0-3.5c-0.5-0.9,0.1-0.8,0.6-1c1.6-0.5,1.9,1.8,3.2,1.5
		c1.4-0.3,2.4,0.2,3.3,1.5C79.3,62.7,78.2,63.7,77.3,65.1z"/>
	<path class="st9" d="M68.6,79.6c0.1,0.6-0.2,1.2-0.3,1.8c-1-0.3-2-0.6-3-0.9c-1.2-0.3-2.3-0.2-3.1,0.8c-0.4,0.5-0.7,0.4-1.1,0.1
		c-0.5-0.4-0.2-0.6,0.1-0.9c1-1.1,1.1-2.3,0.9-3.7c-0.1-0.6,0-0.8,0.5-1c0.5-0.1,0.7,0,0.9,0.5C64.3,78.6,66.3,79.3,68.6,79.6z"/>
	<path class="st10" d="M73.3,65.5c1.1,0,2.1,0.4,2.8,1.3c-0.7,1.4-1.4,2.8-2.1,4.3c-1,0-1.9-0.3-2.6-1C72,68.6,72.6,67,73.3,65.5z"
		/>
</g>
</svg>
