<?xml version="1.0" encoding="utf-8"?>
<!-- Generator: Adobe Illustrator 22.0.0, SVG Export Plug-In . SVG Version: 6.00 Build 0)  -->
<svg version="1.1" id="Calque_1" xmlns="http://www.w3.org/2000/svg" xmlns:xlink="http://www.w3.org/1999/xlink" x="0px" y="0px"
	 viewBox="0 0 40 60" style="enable-background:new 0 0 40 60;" xml:space="preserve">
<style type="text/css">
	.st0{fill:#064270;}
	.st1{fill:#D63837;}
	.st2{fill:#FFFFFF;}
	.st3{fill:#D1383A;}
	.st4{fill:#D13839;}
	.st5{fill:#074371;}
	.st6{fill:#074372;}
	.st7{fill:#D43A3A;}
	.st8{fill:#D73E3E;}
	.st9{fill:#084371;}
</style>
<symbol  id="Nouveau_symbole" viewBox="-7.9 -12.5 15.7 25">
	<path class="st0" d="M7.6,6.6c-1.1,4.5-5.7,6.8-9.9,5.6c-1.8-0.5-3.3-1.6-4.3-3.2c-1.3-2-1.6-4.2-0.9-6.6c0.4-1.3,1.1-2.4,1.8-3.5
		C-4.9-2.4-4-3.6-3.3-4.9c1.1-1.9,2.1-3.8,2.8-5.9c0.2-0.5,0.3-1.1,0.5-1.7c0.2,0.7,0.4,1.4,0.6,2c0.8,2.4,2.1,4.7,3.4,6.8
		c1.1,1.7,2.2,3.3,3,5.1C7.9,3.1,8.1,4.8,7.6,6.6z M0-1.8c-3.6,0-6.5,2.9-6.5,6.5c0,3.6,2.9,6.5,6.5,6.5s6.5-2.9,6.5-6.5
		C6.5,1.1,3.6-1.8,0-1.8z"/>
	<path class="st1" d="M4,6.1c0-0.3-0.1-0.6-0.1-1c0-0.3-0.1-0.7-0.2-1c0.2,0,0.4,0.1,0.6,0.1C4.6,4.4,4.8,4.6,4.9,5
		c0,0.2,0,0.4,0,0.6c0,0.2-0.1,0.4-0.3,0.5C4.4,6.1,4.3,6.2,4.2,6.2C4,6.3,4,6.3,4,6.1z"/>
	<path class="st1" d="M0,11.2c-3.6,0-6.5-2.9-6.5-6.5c0-3.6,2.9-6.5,6.5-6.5s6.5,2.9,6.5,6.5C6.5,8.3,3.6,11.2,0,11.2z M5.4,3.9
		C4.9,3.6,4.4,3.4,3.9,3.3c-0.2,0-0.3,0-0.5,0c-0.1,0-0.1,0-0.1-0.1C3.1,2.8,2.8,2.4,2.5,2.1C2.4,2,2.3,2,2.3,1.9
		c0.2,0,0.5,0,0.7-0.1c0.3,0,0.6-0.1,0.9-0.2c0.1,0,0.2,0,0.2-0.1c0-0.1-0.1-0.1-0.2-0.1C3.6,1.3,3.2,1.3,2.9,1.2
		c-0.7-0.1-1.4-0.1-2-0.1c0,0,0,0-0.1,0c-0.1,0-0.1,0-0.2,0c-0.1,0-0.1,0-0.1,0c-0.1,0-0.1,0-0.2,0c-0.5,0-0.9,0-1.4,0
		c-0.1,0-0.1,0-0.2,0c0,0-0.1,0-0.2,0c-0.1,0-0.1,0-0.2,0c-0.1,0-0.4,0-0.4,0c-0.8,0-1.3,0.1-2,0.2c-0.2,0-0.4,0.1-0.6,0.1
		c0,0-0.1,0-0.1,0.1c-0.1,0-0.1,0.1,0,0.1c0.1,0.1,0.3,0.1,0.5,0.1c0.4,0.1,0.8,0.1,1.2,0.1c0,0,0,0,0,0c-0.6,0.5-1,1.2-1.3,1.9
		c-0.2,0.6-0.3,1.3-0.4,1.9C-4.8,6.5-4.8,7.3-4.8,8c0,0.1,0,0.1,0.1,0.1c2.9,0,5.7,0,8.6,0C4,8.1,4,8.1,4,8c0-0.2,0-0.5,0-0.7
		c0-0.1,0-0.1,0.1-0.1C4.6,7,5,6.9,5.4,6.6C6.3,5.9,6.3,4.5,5.4,3.9z"/>
	<path class="st2" d="M-0.9,5.3c0.1-0.1,0.2-0.1,0.3-0.1c-0.1,0.1-0.1,0.3-0.2,0.4C-1,5.5-1,5.4-0.9,5.3z"/>
	<path class="st2" d="M-0.6,5.7c0-0.2,0.1-0.3,0.2-0.4c0,0,0.1,0,0.1,0c0.1,0.1,0.1,0.3,0.2,0.4C-0.3,5.7-0.4,5.7-0.6,5.7z"/>
	<path class="st2" d="M4,7.2C4,7.5,4,7.7,4,8c0,0.1,0,0.1-0.1,0.1c-2.9,0-5.7,0-8.6,0c-0.1,0-0.1,0-0.1-0.1c0-0.7,0-1.5,0.1-2.2
		c0.1-0.7,0.2-1.3,0.4-1.9c0.3-0.8,0.6-1.4,1.3-1.9c0,0,0,0,0,0c-0.4,0-0.8-0.1-1.2-0.1c-0.2,0-0.3-0.1-0.5-0.1
		c-0.1,0-0.1-0.1,0-0.1c0,0,0.1,0,0.1-0.1C-4.5,1.3-4.2,1.3-4,1.3c0.8-0.1,1.2-0.2,2-0.2c0,0,0.3,0,0.4,0c0.1,0,0.1,0,0.2,0
		c0.1,0,0.1,0,0.2,0c0.1,0,0.1,0,0.2,0c0.5,0,0.9,0,1.4,0c0.1,0,0.1,0,0.2,0c0,0,0,0,0.1,0c0.1,0,0.1,0,0.2,0c0,0,0,0,0.1,0
		c0.7,0,1.4,0.1,2,0.1c0.3,0,0.6,0.1,0.9,0.2c0.1,0,0.2,0,0.2,0.1c0,0.1-0.1,0.1-0.2,0.1C3.6,1.8,3.2,1.8,2.9,1.8
		c-0.2,0-0.4,0-0.7,0.1C2.3,2,2.4,2,2.5,2.1c0.4,0.3,0.6,0.7,0.8,1.1c0,0.1,0.1,0.1,0.1,0.1c0.2,0,0.3,0,0.5,0
		c0.5,0.1,1,0.2,1.4,0.5c0.9,0.7,0.9,2,0,2.7C5,6.9,4.6,7,4.1,7.1C4,7.1,4,7.2,4,7.2z M-0.8,7.1c1.1,0.2,2.2-0.3,2.7-1.3
		c0.4-0.7,0.4-1.4,0.1-2.2C1.7,3.2,1.2,3,0.6,3C0.5,3,0.4,3,0.3,3.1C0.2,3.2,0.1,3.3,0.2,3.5c0.1,0.2,0.2,0.2,0.4,0.2
		c0.1,0,0.2-0.2,0.1-0.3c0.2,0,0.4,0.1,0.6,0.2c0.3,0.4,0.5,1.1,0.3,1.6C1.4,5.2,1.3,5.4,1.2,5.4c0,0-0.1,0-0.1,0
		c0,0.1,0.1,0.1,0.1,0.2c0,0.1,0.1,0,0.2,0.1c-0.1,0.4-0.8,1-1.4,1.1c-0.1-0.2-0.2-0.2-0.3-0.2c-0.1,0-0.3,0.1-0.3,0.2
		c-0.6-0.2-1.1-0.5-1.4-1.1c0-0.1,0.1,0,0.2,0c0-0.1,0.1-0.2,0.1-0.2c0,0,0,0-0.1,0c-0.2,0-0.3-0.1-0.3-0.2
		c-0.2-0.5-0.1-1.2,0.3-1.6c0.1-0.1,0.3-0.2,0.5-0.2c0,0.1,0,0.3,0.1,0.3c0.1,0,0.3,0,0.4-0.2c0.1-0.1,0-0.3-0.1-0.4
		C-1.2,2.9-1.5,2.9-1.7,3c-0.6,0.1-0.9,0.6-1.1,1.2C-3.2,5.5-2.2,6.9-0.8,7.1z M0,3.9c0,0,0-0.1,0-0.1C0,3.7,0,3.8,0,3.9
		c-0.1-0.1-0.2,0-0.2,0c-0.1,0-0.1,0-0.1,0.1c0,0.1-0.1,0.1-0.1,0c0-0.1-0.1-0.1-0.1-0.1c0,0-0.1,0-0.1-0.1c0,0-0.1-0.1-0.1,0
		c0,0,0,0.1,0,0.1C-0.7,4-0.6,4.1-0.6,4.2c-0.1,0-0.2,0.1-0.3,0.1c-0.1,0-0.2,0-0.3-0.1c0,0-0.1,0-0.1,0c0,0,0,0.1,0,0.1
		c0.1,0.1,0.1,0.2,0.1,0.3c0,0.1,0,0.1,0.1,0.1c0,0,0.1,0,0.1,0C-1,4.4-0.8,4.4-0.6,4.4c0,0.2,0,0.3,0,0.5c-0.1,0-0.1,0-0.2,0
		c-0.3,0-0.5,0.2-0.7,0.4c0,0,0,0.1,0,0.1C-1.3,5.5-1.2,5.7-1,5.8C-1.1,5.9-1.2,6-1.3,6c0,0,0,0,0,0C-1.2,6.1-1.1,6.1-1,6.1
		c0.1,0,0.1,0.2,0.3,0.1c0.1,0,0.1,0,0.1-0.1c0-0.1,0-0.2,0-0.3c0,0,0,0,0,0C-0.4,6.1-0.2,6-0.1,5.8C0,6,0,6.1-0.1,6.2
		c0,0.1,0,0.1,0.1,0.1c0.2,0,0.2-0.2,0.3-0.1c0.1,0,0.2,0,0.3-0.1C0.4,6,0.3,5.9,0.3,5.7c0.1,0,0.2,0,0.2,0c0-0.1-0.1-0.1-0.1-0.2
		c0,0,0-0.1-0.1-0.1c-0.1,0-0.1,0.1-0.2,0.1C0.1,5.4,0,5.3-0.1,5.2c0.3,0,0.5-0.2,0.7-0.4c0,0,0.1-0.1,0-0.1
		C0.6,4.6,0.5,4.5,0.4,4.4C0.3,4.2,0.1,4.2-0.1,4.1C-0.1,4,0,4,0,3.9z M4.6,6.1c0.2-0.1,0.3-0.3,0.3-0.5c0-0.2,0-0.4,0-0.6
		C4.8,4.6,4.6,4.4,4.3,4.3C4.1,4.2,3.9,4.2,3.7,4.2c0.1,0.3,0.2,0.7,0.2,1c0,0.3,0.1,0.6,0.1,1c0,0.2,0,0.2,0.2,0.1
		C4.3,6.2,4.4,6.1,4.6,6.1z"/>
	<path class="st2" d="M0,4.4c0.1,0.1,0.2,0.2,0.1,0.3c0,0.1-0.1,0.2-0.3,0.2c0-0.2,0-0.3,0-0.5C-0.1,4.4-0.1,4.4,0,4.4z"/>
	<path class="st0" d="M-1.7,3C-1.5,2.9-1.2,2.9-1,3.1c0.1,0.1,0.2,0.3,0.1,0.4C-1,3.6-1.2,3.7-1.3,3.7c-0.2-0.1-0.2-0.2-0.1-0.3
		c0,0,0.1,0,0.1,0c0,0,0,0-0.1,0c-0.3,0-0.6,0.1-0.7,0.4c-0.2,0.2-0.3,0.5-0.3,0.8c0,0.1-0.1,0.2-0.1,0.3c-0.1,0.2-0.1,0.2,0.1,0.3
		C-2.6,5-2.7,5-2.7,5.1c-0.1,0.2,0,0.3,0.2,0.3c0.1,0,0.1,0,0.1,0.1c0.3,0.8,0.9,1.2,1.7,1.4c0,0,0,0,0,0c0-0.1,0-0.1,0-0.2
		c0-0.2,0.1-0.2,0.3-0.2c0.1,0,0.2,0.1,0.3,0.2c0,0,0,0.1,0,0.1c0,0,0.1,0,0.1,0c0.8-0.2,1.3-0.6,1.6-1.4c0,0,0-0.1,0.1-0.1
		C1.9,5.5,1.9,5.3,2,5.3C2,5.2,2,5.1,1.9,5c0,0-0.1-0.1-0.1-0.1c0,0,0.1,0,0.1,0c0.1,0,0.1-0.1,0-0.2C1.8,4.6,1.8,4.4,1.7,4.2
		C1.7,4,1.6,3.7,1.4,3.5C1.2,3.3,0.9,3.2,0.7,3.2c-0.1,0-0.1,0,0,0.1c0.1,0.2,0,0.3-0.1,0.3c-0.1,0.1-0.3,0-0.4-0.2
		c-0.1-0.1,0-0.3,0.1-0.4C0.4,3,0.5,3,0.6,3c0.6,0,1,0.2,1.3,0.7c0.4,0.7,0.3,1.5-0.1,2.2C1.4,6.8,0.3,7.3-0.8,7.1
		c-1.4-0.2-2.4-1.6-2-3C-2.7,3.6-2.3,3.1-1.7,3z"/>
	<path class="st3" d="M-0.7,6.9c-0.8-0.2-1.4-0.6-1.7-1.4c0,0,0-0.1-0.1-0.1c-0.2,0-0.3-0.1-0.2-0.3C-2.7,5-2.6,5-2.5,4.9
		c-0.2-0.1-0.2-0.1-0.1-0.3c0.1-0.1,0.1-0.2,0.1-0.3c0-0.3,0.1-0.5,0.3-0.8C-2,3.4-1.8,3.2-1.4,3.2c0,0,0.1,0,0.1,0c0,0,0,0-0.1,0
		c-0.2,0-0.4,0.1-0.5,0.2c-0.4,0.4-0.5,1.1-0.3,1.6c0.1,0.1,0.2,0.3,0.3,0.2c0,0,0.1,0,0.1,0c0,0.1-0.1,0.2-0.1,0.2
		c0,0.1-0.1,0-0.2,0c0.3,0.6,0.8,0.9,1.4,1.1C-0.7,6.8-0.6,6.8-0.7,6.9C-0.6,6.9-0.7,6.9-0.7,6.9z"/>
	<path class="st4" d="M0.7,3.2c0.3,0,0.5,0.1,0.7,0.2C1.6,3.7,1.7,4,1.7,4.2c0,0.2,0.1,0.4,0.2,0.5c0.1,0.1,0,0.1,0,0.2
		c0,0-0.1,0-0.1,0C1.8,5,1.9,5,1.9,5C2,5.1,2,5.2,2,5.3c0,0.1-0.1,0.2-0.3,0.1c-0.1,0-0.1,0-0.1,0.1C1.3,6.2,0.8,6.7,0,6.9
		c0,0-0.1,0-0.1,0c0,0,0-0.1,0-0.1c0.6-0.1,1.3-0.7,1.4-1.1c-0.1,0-0.2,0.1-0.2-0.1c0-0.1-0.1-0.1-0.1-0.2c0,0,0,0,0.1,0
		c0.2,0,0.3-0.1,0.3-0.2c0.2-0.5,0.1-1.2-0.3-1.6C1.1,3.4,0.9,3.3,0.7,3.2C0.6,3.3,0.6,3.3,0.7,3.2z"/>
	<path class="st1" d="M0.7,4.7c0,0,0,0.1,0,0.1C0.4,5,0.2,5.1-0.1,5.2c-0.1,0-0.2,0-0.2,0.1c0,0-0.1,0-0.1,0l0,0
		c-0.1-0.1-0.1-0.1-0.2-0.1c-0.1,0-0.2,0-0.3,0.1C-1,5.4-1,5.5-0.9,5.6c0,0.1-0.1,0.1-0.1,0.2c-0.2-0.1-0.3-0.3-0.4-0.4
		c0,0,0-0.1,0-0.1C-1.2,5.1-1,4.9-0.8,4.9c0.1,0,0.1,0,0.2,0c0,0,0,0,0.1,0c0.1-0.1,0.2-0.1,0.3,0c0,0,0.1,0,0.1,0
		c0.1,0,0.2,0,0.3-0.2c0-0.1,0-0.2-0.1-0.3c0,0-0.1,0-0.1-0.1c0-0.1,0-0.2,0-0.2c0.2,0.1,0.4,0.1,0.5,0.2C0.5,4.5,0.6,4.6,0.7,4.7z"
		/>
	<path class="st5" d="M-0.2,4.9C-0.2,4.9-0.2,4.9-0.2,4.9c-0.2-0.1-0.3-0.1-0.4,0c0,0,0,0-0.1,0c0-0.2,0-0.3,0-0.5
		c0-0.1,0-0.1,0-0.2c0-0.1-0.1-0.2-0.2-0.3c0,0,0-0.1,0-0.1c0-0.1,0.1,0,0.1,0c0,0,0.1,0.1,0.1,0.1c0.1,0,0.1,0,0.1,0.1
		c0,0.1,0.1,0.1,0.1,0c0-0.1,0.1-0.1,0.1-0.1c0,0,0.1,0,0.1-0.1c0,0,0-0.1,0.1,0c0,0,0,0.1,0,0.1C0,4-0.1,4-0.1,4.1
		c0,0.1-0.1,0.2,0,0.2C-0.2,4.5-0.2,4.7-0.2,4.9z"/>
	<path class="st6" d="M-0.7,5.2c0.1,0,0.2,0,0.2,0.1l0,0c-0.1,0.1-0.1,0.3-0.2,0.4c0,0.1-0.1,0.1-0.1,0.2c0,0.1,0,0.2,0,0.3
		c0,0.1,0,0.1-0.1,0.1c-0.1,0-0.2-0.2-0.3-0.1c-0.1,0-0.2,0-0.3-0.1c0,0,0,0,0,0C-1.2,6-1.1,5.9-1,5.8c0.1,0,0.1-0.1,0.1-0.2
		C-0.8,5.4-0.7,5.3-0.7,5.2z"/>
	<path class="st7" d="M-0.1,5.7c0.1,0,0.2,0,0.3-0.1c0.1,0,0.1-0.1,0.2-0.1c0,0,0,0.1,0.1,0.1c0,0.1,0.2,0.1,0.1,0.2
		c0,0.1-0.2,0-0.2,0c-0.1,0-0.2,0-0.3,0.1C-0.2,6-0.4,6.1-0.6,5.9c0,0,0,0,0,0c0-0.1,0-0.1,0.1-0.2C-0.4,5.7-0.3,5.7-0.1,5.7z"/>
	<path class="st6" d="M0.6,6C0.5,6.1,0.4,6.2,0.3,6.1C0.2,6.1,0.1,6.3,0,6.3c-0.1,0-0.1,0-0.1-0.1C0,6.1,0,6-0.1,5.8
		C0,5.8,0.1,5.7,0.3,5.7C0.3,5.9,0.4,6,0.6,6z"/>
	<path class="st8" d="M-1.1,4.7C-1.1,4.7-1.1,4.7-1.1,4.7c-0.1,0-0.1,0-0.1,0c0-0.1,0-0.2-0.1-0.3c0,0-0.1-0.1,0-0.1
		c0,0,0.1,0,0.1,0C-1.1,4.3-1,4.3-0.9,4.3c0.1,0,0.2-0.1,0.3-0.1c0,0.1,0,0.1,0,0.2C-0.8,4.4-1,4.4-1.1,4.7z"/>
	<path class="st9" d="M-0.3,5.3c0.1-0.1,0.2-0.1,0.2-0.1C0,5.3,0.1,5.4,0.1,5.6C0.1,5.7,0,5.7-0.1,5.7C-0.2,5.5-0.2,5.4-0.3,5.3z"/>
</symbol>
<use xlink:href="#Nouveau_symbole"  width="15.7" height="25" x="-7.9" y="-12.5" transform="matrix(1 0 0 -1 21.7643 27.2941)" style="overflow:visible;"/>
</svg>
